<svg width="490" height="93" viewBox="0 0 490 93" fill="none" xmlns="http://www.w3.org/2000/svg">
<mask id="path-1-outside-1_221_5" maskUnits="userSpaceOnUse" x="0.34375" y="0.484375" width="489" height="93" fill="black">
<rect fill="white" x="0.34375" y="0.484375" width="489" height="93"/>
<path d="M76.7188 20.375C76.7188 20.7188 76.1406 21.5469 74.9844 22.8594C71.7969 26.5156 68.7812 28.3438 65.9375 28.3438C64.125 28.3438 62.6406 27.7188 61.4844 26.4688C60.3594 25.1875 59.7969 23.5156 59.7969 21.4531C59.7969 19.7031 60.8281 16.875 62.8906 12.9688C63.8594 11.1562 64.3438 9.65625 64.3438 8.46875C64.3438 6.90625 63.4688 5.57812 61.7188 4.48438C60 3.35938 57.8906 2.79688 55.3906 2.79688C48.2344 2.79688 41.5938 5.54688 35.4688 11.0469C29.375 16.5469 26.3281 22.5 26.3281 28.9062C26.3281 32.1562 27.3438 34.8125 29.375 36.875C31.4375 38.9375 34.0938 39.9688 37.3438 39.9688C40.875 39.9688 44.4219 38.6875 47.9844 36.125C51.5781 33.5312 54.1094 30.4219 55.5781 26.7969C55.6719 26.4844 55.7969 26.3281 55.9531 26.3281C56.2344 26.3281 56.375 26.4844 56.375 26.7969C56.375 27.4531 55.8281 28.625 54.7344 30.3125C53.6406 31.9688 52.5156 33.3594 51.3594 34.4844C47.1406 38.6406 42.4062 40.7188 37.1562 40.7188C33.5938 40.7188 30.7344 39.625 28.5781 37.4375C26.4219 35.25 25.3438 32.3438 25.3438 28.7188C25.3438 22.125 28.5156 16.0156 34.8594 10.3906C41.2344 4.76562 48.1406 1.95312 55.5781 1.95312C58.8594 1.95312 61.4219 2.76562 63.2656 4.39062C65.1406 6.01562 66.0781 8.25 66.0781 11.0938C66.0781 13.2188 65.3281 15.7344 63.8281 18.6406C62.4844 21.2969 61.8125 23.0938 61.8125 24.0312C61.8125 26.3438 63.1875 27.5 65.9375 27.5C69.0625 27.5 72.2969 25.1875 75.6406 20.5625C75.9219 20.1875 76.1562 20 76.3438 20C76.5938 20 76.7188 20.125 76.7188 20.375ZM126.922 11.8438C126.922 12.4062 126.594 12.6875 125.938 12.6875C125.656 12.6875 124.609 12.5 122.797 12.125C119.453 11.4375 116.672 11.0938 114.453 11.0938C109.422 12.625 104.969 15.5938 101.094 20C97.25 24.4062 92.8594 31.5469 87.9219 41.4219C80.3594 56.5781 70.6719 65.5312 58.8594 68.2812C61.3281 68.6562 63.4688 68.8438 65.2812 68.8438C71.0312 68.8438 75.8594 67 79.7656 63.3125C83.5469 59.75 86.6875 55.9688 89.1875 51.9688C89.4688 51.5312 89.6875 51.3125 89.8438 51.3125C90.0312 51.3125 90.1406 51.375 90.1719 51.5C90.1719 51.9688 88.375 54.3906 84.7812 58.7656C81.4375 62.8594 78.3906 65.6875 75.6406 67.25C72.8906 68.7812 69.5312 69.5469 65.5625 69.5469C63.2812 69.5469 60.5 69.2188 57.2188 68.5625C55.2188 69.2188 52.9219 69.5469 50.3281 69.5469C48.5156 69.5469 47.6094 69.2188 47.6094 68.5625C47.6094 67.8125 48.8281 67.4375 51.2656 67.4375C52.9844 67.4375 54.9688 67.5938 57.2188 67.9062C62.0625 66.75 65.7188 64.8438 68.1875 62.1875C70.6875 59.5312 75.4844 52.3438 82.5781 40.625H64.5312C56.875 48.6875 50.9531 54.4219 46.7656 57.8281C36.9844 65.7656 27.7656 69.7344 19.1094 69.7344C14.1719 69.7344 9.96875 68.5781 6.5 66.2656C3.0625 63.9531 1.34375 61.1406 1.34375 57.8281C1.34375 56.1094 1.85938 54.6406 2.89062 53.4219C3.95312 52.2031 5.23438 51.5938 6.73438 51.5938C8.76562 51.5938 9.78125 52.5781 9.78125 54.5469C9.78125 55.5781 9.42188 56.4688 8.70312 57.2188C8.01562 57.9375 7.20312 58.2969 6.26562 58.2969C4.79688 58.2969 4.0625 57.5938 4.0625 56.1875L4.15625 55.25C4.21875 55.125 4.25 54.9531 4.25 54.7344C4.25 54.4219 4.10938 54.2656 3.82812 54.2656C3.51562 54.2656 3.20312 54.6562 2.89062 55.4375C2.57812 56.2188 2.42188 57.0156 2.42188 57.8281C2.42188 60.8906 4.03125 63.4844 7.25 65.6094C10.4688 67.7031 14.4219 68.75 19.1094 68.75C25.8281 68.75 33.2188 65.4531 41.2812 58.8594C43.125 57.3906 45.1719 55.4531 47.4219 53.0469C51.8906 48.3594 55.4531 44.7031 58.1094 42.0781L59.5156 40.625H50.4219L50.9844 39.7812C53.9844 39.7812 57.0625 39.8125 60.2188 39.875C69.375 29.6875 78.25 22.25 86.8438 17.5625C95.4688 12.8438 104.578 10.4531 114.172 10.3906C116.391 9.95312 118.469 9.73438 120.406 9.73438C124.75 9.73438 126.922 10.4375 126.922 11.8438ZM112.062 11.2812C103.906 11.6875 96.3438 14.0312 89.375 18.3125C82.4062 22.5938 74.375 29.7812 65.2812 39.875H83.0469C87.0469 32.9062 91.875 26.6562 97.5312 21.125C103.094 15.625 107.938 12.3438 112.062 11.2812ZM121.196 20.0938C108.071 41.9375 100.414 54.7812 98.2269 58.625C96.0706 62.4688 94.9925 65.0156 94.9925 66.2656C94.9925 67.6719 95.5863 68.375 96.7738 68.375C99.3988 68.375 104.211 63.4219 111.211 53.5156C111.368 53.2031 111.555 53.0469 111.774 53.0469C111.899 53.0781 111.961 53.1719 111.961 53.3281C111.961 53.5156 111.805 53.7656 111.493 54.0781L109.477 56.8438C103.571 65 99.2113 69.0781 96.3988 69.0781C95.055 69.0781 93.9456 68.5781 93.0706 67.5781C92.2269 66.5469 91.805 65.25 91.805 63.6875C91.805 61.9688 92.1956 60.3125 92.9769 58.7188C93.7894 57.0938 96.5081 52.4375 101.133 44.75C106.789 35.3438 111.555 27.1875 115.43 20.2812C116.368 20.5312 117.196 20.6562 117.914 20.6562C119.102 20.6562 120.196 20.4688 121.196 20.0938ZM151.423 19.7188C151.423 22.5 149.454 26 145.516 30.2188C141.579 34.4062 136.423 38.5156 130.048 42.5469H138.11L137.688 43.25H129.532L125.688 50.7031C120.969 59.9219 116.938 66.8594 113.594 71.5156C110.251 76.2031 106.391 80.375 102.016 84.0312C95.985 89.0312 90.3756 91.5312 85.1881 91.5312C82.8756 91.5312 81.7194 91.2031 81.7194 90.5469C81.7194 90.2344 81.8913 90.0781 82.235 90.0781C82.485 90.0781 82.6725 90.1094 82.7975 90.1719C83.9225 90.4844 84.985 90.6406 85.985 90.6406C90.2038 90.6406 94.4538 88.75 98.735 84.9688C101.36 82.6562 103.657 79.9375 105.626 76.8125C107.251 74.3125 111.094 67.5 117.157 56.375L124.376 43.25H119.36L119.735 42.5469H124.844C128.844 35.7656 133.266 29.9062 138.11 24.9688C142.954 20 146.688 17.5156 149.313 17.5156C150.719 17.5156 151.423 18.25 151.423 19.7188ZM150.86 19.625C150.86 18.5938 150.344 18.0781 149.313 18.0781C146.938 18.0781 143.704 20.7969 139.61 26.2344C137.579 28.9844 134.516 34.1094 130.423 41.6094C135.548 38.0469 140.235 33.9844 144.485 29.4219C148.735 24.8594 150.86 21.5938 150.86 19.625ZM166.79 53.3281C166.79 53.5781 165.852 54.7188 163.977 56.75C161.602 59.375 159.368 60.6875 157.274 60.6875C154.899 60.6875 153.712 59.3125 153.712 56.5625C153.712 55.6875 153.899 54.5781 154.274 53.2344C152.306 54.9531 150.696 56.6562 149.446 58.3438C148.227 60.0312 146.102 63.4688 143.071 68.6562C141.415 68.5312 140.446 68.4688 140.165 68.4688C140.04 68.4688 139.087 68.5312 137.306 68.6562L144.993 56.1875C148.837 49.9375 150.759 46.0625 150.759 44.5625C150.759 43.6875 150.399 43.25 149.681 43.25C147.931 43.25 144.759 46.6094 140.165 53.3281C139.884 53.7656 139.634 53.9844 139.415 53.9844C139.29 53.9531 139.227 53.8594 139.227 53.7031C139.259 53.5469 139.321 53.4219 139.415 53.3281L140.259 52.1562C145.071 45.75 148.337 42.5469 150.056 42.5469C152.556 42.5469 153.806 44.1562 153.806 47.375C153.806 49.7812 152.524 52.9688 149.962 56.9375C151.587 55.0625 153.134 53.5312 154.602 52.3438C155.79 49.5625 157.259 47.2344 159.009 45.3594C160.79 43.4844 162.384 42.5469 163.79 42.5469C164.759 42.5469 165.243 42.9688 165.243 43.8125C165.243 45.3125 163.071 47.4531 158.727 50.2344C158.04 50.6719 157.009 51.3125 155.634 52.1562L155.071 52.625C154.634 54.0625 154.415 55.25 154.415 56.1875C154.415 58.8125 155.399 60.125 157.368 60.125C159.806 60.125 162.462 58.1094 165.337 54.0781C165.962 53.3906 166.352 53.0469 166.509 53.0469C166.696 53.0469 166.79 53.1406 166.79 53.3281ZM198.095 53.3281C198.095 53.4219 197.814 53.8281 197.251 54.5469L195.236 57.0781C188.767 65.0781 183.22 69.0781 178.595 69.0781C176.408 69.0781 174.564 68.2969 173.064 66.7344C171.595 65.1406 170.861 63.1562 170.861 60.7812C170.861 55.1562 174.783 50.2031 182.626 45.9219C186.751 43.6719 190.111 42.5469 192.704 42.5469C193.829 42.5469 194.783 42.8906 195.564 43.5781C196.376 44.2344 196.783 45.0469 196.783 46.0156C196.783 48.2656 195.314 50.1875 192.376 51.7812C189.439 53.3438 184.533 54.8125 177.658 56.1875C175.533 59.4062 174.47 62.0938 174.47 64.25C174.47 66.9375 175.923 68.2812 178.829 68.2812C183.767 68.2812 189.814 63.4531 196.97 53.7969C197.345 53.2969 197.658 53.0469 197.908 53.0469C198.033 53.0781 198.095 53.1719 198.095 53.3281ZM194.158 44.6562C194.158 43.6562 193.611 43.1562 192.517 43.1562C190.861 43.1562 188.673 44.3125 185.954 46.625C183.267 48.9062 180.626 51.875 178.033 55.5312C182.533 54.375 186.345 52.75 189.47 50.6562C192.595 48.5312 194.158 46.5312 194.158 44.6562ZM248.337 20.5625C236.619 39.1875 229.228 51.0938 226.166 56.2812C223.072 61.5625 221.525 64.8906 221.525 66.2656C221.525 67.6719 222.166 68.375 223.447 68.375C226.291 68.375 231.119 63.4219 237.931 53.5156C238.119 53.2031 238.291 53.0469 238.447 53.0469C238.634 53.0469 238.728 53.1406 238.728 53.3281C238.697 53.4219 238.541 53.6719 238.259 54.0781L236.244 56.8438C230.337 65 225.978 69.0781 223.166 69.0781C221.728 69.0781 220.556 68.5469 219.65 67.4844C218.744 66.3906 218.291 65 218.291 63.3125C218.291 61.625 218.853 59.6719 219.978 57.4531C214.509 65.2031 210.447 69.0781 207.791 69.0781C206.134 69.0781 204.744 68.375 203.619 66.9688C202.494 65.5312 201.931 63.7344 201.931 61.5781C201.931 56.4219 205.134 51.75 211.541 47.5625C216.634 44.2188 220.634 42.5469 223.541 42.5469C225.478 42.5469 226.447 43.4844 226.447 45.3594C226.447 46.2344 226.181 47.2188 225.65 48.3125L242.384 20.2812C243.416 20.5938 244.431 20.75 245.431 20.75C245.681 20.75 246.65 20.6875 248.337 20.5625ZM225.744 45.7344C225.744 44.0781 224.978 43.25 223.447 43.25C220.634 43.25 216.916 46.0625 212.291 51.6875C207.697 57.2812 205.4 61.7969 205.4 65.2344C205.4 67.3281 206.259 68.375 207.978 68.375C210.478 68.375 214.775 64.0312 220.869 55.3438C224.119 50.6562 225.744 47.4531 225.744 45.7344ZM407.651 21.8281C407.651 24.4531 407.354 25.7656 406.76 25.7656C406.51 25.7656 406.385 25.6719 406.385 25.4844C406.385 25.1406 406.448 24.5938 406.573 23.8438C406.698 23.0938 406.76 22.5156 406.76 22.1094C406.76 17.7969 405.229 14.2656 402.166 11.5156C399.104 8.73438 395.198 7.34375 390.448 7.34375C381.041 7.34375 371.573 13.4531 362.041 25.6719C359.041 29.4844 353.213 38.6719 344.557 53.2344C342.057 57.4531 339.479 61.2188 336.823 64.5312C334.198 67.8125 332.463 69.4531 331.619 69.4531C331.151 69.4531 330.916 69.2188 330.916 68.75C330.916 68.1562 331.619 67.5156 333.026 66.8281C335.776 65.5469 337.151 62.3594 337.151 57.2656C337.151 56.2969 337.088 54.6875 336.963 52.4375C336.651 46.875 336.494 42.0781 336.494 38.0469C336.494 31.3281 337.135 25.8125 338.416 21.5C339.729 17.1562 341.901 13.3281 344.932 10.0156C344.994 9.92188 345.057 9.79688 345.119 9.64062C344.151 9.51562 342.01 11.5 338.698 15.5938C336.948 17.75 335.369 19.9844 333.963 22.2969C332.588 24.6094 328.979 31.0469 323.135 41.6094C318.135 50.6406 312.307 57.625 305.651 62.5625C298.994 67.4688 292.057 69.9219 284.838 69.9219C280.776 69.9219 277.416 69.0156 274.76 67.2031C272.135 65.3906 270.823 63.0625 270.823 60.2188C270.823 58.5938 271.291 57.2344 272.229 56.1406C273.166 55.0156 274.338 54.4531 275.744 54.4531C277.776 54.4531 278.791 55.4531 278.791 57.4531C278.791 58.4844 278.463 59.375 277.807 60.125C277.151 60.8438 276.354 61.2031 275.416 61.2031C273.885 61.2031 273.119 60.3594 273.119 58.6719C273.119 58.0469 272.994 57.7344 272.744 57.7344C272.244 57.7344 271.994 58.5938 271.994 60.3125C271.994 62.875 273.213 64.9844 275.651 66.6406C278.119 68.2656 281.244 69.0781 285.026 69.0781C292.276 69.0781 298.994 66.3438 305.182 60.875C311.401 55.4062 318.51 45.9375 326.51 32.4688C333.041 21.5 338.26 14.2969 342.166 10.8594C344.854 8.51562 346.573 7.34375 347.323 7.34375C347.448 7.375 347.526 7.4375 347.557 7.53125C347.557 7.59375 347.354 7.875 346.948 8.375C344.979 11.0312 343.729 13.8594 343.198 16.8594C342.698 19.8281 342.354 26.1875 342.166 35.9375C341.916 47.8438 340.448 56.3594 337.76 61.4844C337.698 61.4844 337.666 61.5469 337.666 61.6719L337.76 61.7656C338.323 61.7656 343.057 53.9219 351.963 38.2344C358.463 26.7656 364.729 18.4844 370.76 13.3906C376.823 8.26562 383.354 5.70312 390.354 5.70312C395.354 5.70312 399.479 7.23438 402.729 10.2969C406.01 13.3281 407.651 17.1719 407.651 21.8281ZM332.557 18.5469C332.557 19.2344 331.666 20.5781 329.885 22.5781C327.198 25.6094 324.604 27.125 322.104 27.125C320.385 27.125 318.932 26.5 317.744 25.25C316.557 23.9688 315.963 22.4062 315.963 20.5625C315.963 18.7812 316.604 16.6406 317.885 14.1406C319.479 11.0156 320.276 8.8125 320.276 7.53125C320.276 5.9375 319.526 4.65625 318.026 3.6875C316.526 2.71875 314.557 2.23438 312.119 2.23438C305.151 2.23438 298.604 5.04688 292.479 10.6719C286.354 16.2969 283.291 22.2812 283.291 28.625C283.291 31.9062 284.291 34.5938 286.291 36.6875C288.323 38.75 290.916 39.7812 294.073 39.7812C296.885 39.7812 299.729 38.9844 302.604 37.3906C305.51 35.7656 307.854 33.6875 309.635 31.1562C309.76 31 309.854 30.9219 309.916 30.9219C310.166 30.9219 310.291 31.0625 310.291 31.3438C310.291 31.9688 309.291 33.1719 307.291 34.9531C303.166 38.6719 298.698 40.5312 293.885 40.5312C290.51 40.5312 287.76 39.4375 285.635 37.25C283.51 35.0625 282.448 32.2188 282.448 28.7188C282.448 21.9375 285.573 15.7031 291.823 10.0156C298.104 4.32812 304.963 1.48438 312.401 1.48438C315.463 1.48438 317.854 2.25 319.573 3.78125C321.323 5.3125 322.198 7.42188 322.198 10.1094C322.198 12.1094 321.198 15.1562 319.198 19.25C318.51 20.6875 318.166 21.8281 318.166 22.6719C318.166 25.0469 319.448 26.2344 322.01 26.2344C323.541 26.2344 325.244 25.5 327.119 24.0312C329.026 22.5625 330.557 20.7656 331.713 18.6406C331.869 18.3281 332.026 18.1719 332.182 18.1719C332.432 18.1719 332.557 18.2969 332.557 18.5469ZM390.253 53.2344C390.253 53.7344 389.331 54.9062 387.487 56.75C384.737 59.5 382.206 60.875 379.893 60.875C378.924 60.875 378.065 60.6875 377.315 60.3125C373.19 66.1562 369.315 69.0781 365.69 69.0781C363.815 69.0781 362.206 68.3125 360.862 66.7812C359.549 65.2188 358.893 63.3594 358.893 61.2031C358.893 56.3906 362.049 51.75 368.362 47.2812C372.799 44.125 376.456 42.5469 379.331 42.5469C382.018 42.5469 383.362 43.9844 383.362 46.8594C383.362 50.4531 381.471 54.7812 377.69 59.8438C378.315 60.2188 379.018 60.4062 379.799 60.4062C381.206 60.4062 382.846 59.75 384.721 58.4375C386.596 57.125 388.128 55.5469 389.315 53.7031C389.659 53.2656 389.909 53.0469 390.065 53.0469C390.19 53.0469 390.253 53.1094 390.253 53.2344ZM382.659 46.9531C382.659 44.4219 381.518 43.1562 379.237 43.1562C376.393 43.1562 372.924 45.875 368.831 51.3125C364.737 56.75 362.69 61.3281 362.69 65.0469C362.69 67.2031 363.721 68.2812 365.784 68.2812C369.159 68.2812 372.846 65.5 376.846 59.9375C375.94 58.9375 375.487 57.9062 375.487 56.8438C375.487 55.3125 376.096 53.7344 377.315 52.1094C378.534 50.4844 379.721 49.6719 380.878 49.6719C381.378 49.6719 381.721 49.9844 381.909 50.6094C382.409 49.5156 382.659 48.2969 382.659 46.9531ZM423.198 20.6562L402.151 53.8906C405.432 49.3906 407.886 46.375 409.511 44.8438C411.136 43.3125 412.682 42.5469 414.151 42.5469C415.901 42.5469 417.323 43.2656 418.417 44.7031C419.542 46.1094 420.104 47.8906 420.104 50.0469C420.104 54.7656 417.104 59.4062 411.104 63.9688C406.636 67.375 402.667 69.0781 399.198 69.0781C397.573 69.0781 396.245 68.4688 395.214 67.25C394.214 66 393.714 64.3906 393.714 62.4219C393.714 60.0781 395.214 56.5 398.214 51.6875L417.62 20.5625C418.464 20.8125 419.37 20.9375 420.339 20.9375C421.089 20.9375 422.042 20.8438 423.198 20.6562ZM416.682 46.3906C416.682 44.2969 415.807 43.25 414.057 43.25C411.776 43.25 407.886 47.0156 402.386 54.5469C398.261 60.1719 396.198 63.9531 396.198 65.8906C396.198 67.5469 397.011 68.375 398.636 68.375C401.448 68.375 405.151 65.5781 409.745 59.9844C414.37 54.3594 416.682 49.8281 416.682 46.3906ZM454.644 53.3281C454.644 53.4219 454.362 53.8281 453.8 54.5469L451.784 57.0781C445.316 65.0781 439.769 69.0781 435.144 69.0781C432.956 69.0781 431.112 68.2969 429.612 66.7344C428.144 65.1406 427.409 63.1562 427.409 60.7812C427.409 55.1562 431.331 50.2031 439.175 45.9219C443.3 43.6719 446.659 42.5469 449.253 42.5469C450.378 42.5469 451.331 42.8906 452.112 43.5781C452.925 44.2344 453.331 45.0469 453.331 46.0156C453.331 48.2656 451.862 50.1875 448.925 51.7812C445.987 53.3438 441.081 54.8125 434.206 56.1875C432.081 59.4062 431.019 62.0938 431.019 64.25C431.019 66.9375 432.472 68.2812 435.378 68.2812C440.316 68.2812 446.362 63.4531 453.519 53.7969C453.894 53.2969 454.206 53.0469 454.456 53.0469C454.581 53.0781 454.644 53.1719 454.644 53.3281ZM450.706 44.6562C450.706 43.6562 450.159 43.1562 449.066 43.1562C447.409 43.1562 445.222 44.3125 442.503 46.625C439.816 48.9062 437.175 51.875 434.581 55.5312C439.081 54.375 442.894 52.75 446.019 50.6562C449.144 48.5312 450.706 46.5312 450.706 44.6562ZM486.933 20.0938C473.808 41.9375 466.152 54.7812 463.964 58.625C461.808 62.4688 460.73 65.0156 460.73 66.2656C460.73 67.6719 461.324 68.375 462.511 68.375C465.136 68.375 469.949 63.4219 476.949 53.5156C477.105 53.2031 477.293 53.0469 477.511 53.0469C477.636 53.0781 477.699 53.1719 477.699 53.3281C477.699 53.5156 477.543 53.7656 477.23 54.0781L475.214 56.8438C469.308 65 464.949 69.0781 462.136 69.0781C460.793 69.0781 459.683 68.5781 458.808 67.5781C457.964 66.5469 457.543 65.25 457.543 63.6875C457.543 61.9688 457.933 60.3125 458.714 58.7188C459.527 57.0938 462.246 52.4375 466.871 44.75C472.527 35.3438 477.293 27.1875 481.168 20.2812C482.105 20.5312 482.933 20.6562 483.652 20.6562C484.839 20.6562 485.933 20.4688 486.933 20.0938Z"/>
</mask>
<path d="M76.7188 20.375C76.7188 20.7188 76.1406 21.5469 74.9844 22.8594C71.7969 26.5156 68.7812 28.3438 65.9375 28.3438C64.125 28.3438 62.6406 27.7188 61.4844 26.4688C60.3594 25.1875 59.7969 23.5156 59.7969 21.4531C59.7969 19.7031 60.8281 16.875 62.8906 12.9688C63.8594 11.1562 64.3438 9.65625 64.3438 8.46875C64.3438 6.90625 63.4688 5.57812 61.7188 4.48438C60 3.35938 57.8906 2.79688 55.3906 2.79688C48.2344 2.79688 41.5938 5.54688 35.4688 11.0469C29.375 16.5469 26.3281 22.5 26.3281 28.9062C26.3281 32.1562 27.3438 34.8125 29.375 36.875C31.4375 38.9375 34.0938 39.9688 37.3438 39.9688C40.875 39.9688 44.4219 38.6875 47.9844 36.125C51.5781 33.5312 54.1094 30.4219 55.5781 26.7969C55.6719 26.4844 55.7969 26.3281 55.9531 26.3281C56.2344 26.3281 56.375 26.4844 56.375 26.7969C56.375 27.4531 55.8281 28.625 54.7344 30.3125C53.6406 31.9688 52.5156 33.3594 51.3594 34.4844C47.1406 38.6406 42.4062 40.7188 37.1562 40.7188C33.5938 40.7188 30.7344 39.625 28.5781 37.4375C26.4219 35.25 25.3438 32.3438 25.3438 28.7188C25.3438 22.125 28.5156 16.0156 34.8594 10.3906C41.2344 4.76562 48.1406 1.95312 55.5781 1.95312C58.8594 1.95312 61.4219 2.76562 63.2656 4.39062C65.1406 6.01562 66.0781 8.25 66.0781 11.0938C66.0781 13.2188 65.3281 15.7344 63.8281 18.6406C62.4844 21.2969 61.8125 23.0938 61.8125 24.0312C61.8125 26.3438 63.1875 27.5 65.9375 27.5C69.0625 27.5 72.2969 25.1875 75.6406 20.5625C75.9219 20.1875 76.1562 20 76.3438 20C76.5938 20 76.7188 20.125 76.7188 20.375ZM126.922 11.8438C126.922 12.4062 126.594 12.6875 125.938 12.6875C125.656 12.6875 124.609 12.5 122.797 12.125C119.453 11.4375 116.672 11.0938 114.453 11.0938C109.422 12.625 104.969 15.5938 101.094 20C97.25 24.4062 92.8594 31.5469 87.9219 41.4219C80.3594 56.5781 70.6719 65.5312 58.8594 68.2812C61.3281 68.6562 63.4688 68.8438 65.2812 68.8438C71.0312 68.8438 75.8594 67 79.7656 63.3125C83.5469 59.75 86.6875 55.9688 89.1875 51.9688C89.4688 51.5312 89.6875 51.3125 89.8438 51.3125C90.0312 51.3125 90.1406 51.375 90.1719 51.5C90.1719 51.9688 88.375 54.3906 84.7812 58.7656C81.4375 62.8594 78.3906 65.6875 75.6406 67.25C72.8906 68.7812 69.5312 69.5469 65.5625 69.5469C63.2812 69.5469 60.5 69.2188 57.2188 68.5625C55.2188 69.2188 52.9219 69.5469 50.3281 69.5469C48.5156 69.5469 47.6094 69.2188 47.6094 68.5625C47.6094 67.8125 48.8281 67.4375 51.2656 67.4375C52.9844 67.4375 54.9688 67.5938 57.2188 67.9062C62.0625 66.75 65.7188 64.8438 68.1875 62.1875C70.6875 59.5312 75.4844 52.3438 82.5781 40.625H64.5312C56.875 48.6875 50.9531 54.4219 46.7656 57.8281C36.9844 65.7656 27.7656 69.7344 19.1094 69.7344C14.1719 69.7344 9.96875 68.5781 6.5 66.2656C3.0625 63.9531 1.34375 61.1406 1.34375 57.8281C1.34375 56.1094 1.85938 54.6406 2.89062 53.4219C3.95312 52.2031 5.23438 51.5938 6.73438 51.5938C8.76562 51.5938 9.78125 52.5781 9.78125 54.5469C9.78125 55.5781 9.42188 56.4688 8.70312 57.2188C8.01562 57.9375 7.20312 58.2969 6.26562 58.2969C4.79688 58.2969 4.0625 57.5938 4.0625 56.1875L4.15625 55.25C4.21875 55.125 4.25 54.9531 4.25 54.7344C4.25 54.4219 4.10938 54.2656 3.82812 54.2656C3.51562 54.2656 3.20312 54.6562 2.89062 55.4375C2.57812 56.2188 2.42188 57.0156 2.42188 57.8281C2.42188 60.8906 4.03125 63.4844 7.25 65.6094C10.4688 67.7031 14.4219 68.75 19.1094 68.75C25.8281 68.75 33.2188 65.4531 41.2812 58.8594C43.125 57.3906 45.1719 55.4531 47.4219 53.0469C51.8906 48.3594 55.4531 44.7031 58.1094 42.0781L59.5156 40.625H50.4219L50.9844 39.7812C53.9844 39.7812 57.0625 39.8125 60.2188 39.875C69.375 29.6875 78.25 22.25 86.8438 17.5625C95.4688 12.8438 104.578 10.4531 114.172 10.3906C116.391 9.95312 118.469 9.73438 120.406 9.73438C124.75 9.73438 126.922 10.4375 126.922 11.8438ZM112.062 11.2812C103.906 11.6875 96.3438 14.0312 89.375 18.3125C82.4062 22.5938 74.375 29.7812 65.2812 39.875H83.0469C87.0469 32.9062 91.875 26.6562 97.5312 21.125C103.094 15.625 107.938 12.3438 112.062 11.2812ZM121.196 20.0938C108.071 41.9375 100.414 54.7812 98.2269 58.625C96.0706 62.4688 94.9925 65.0156 94.9925 66.2656C94.9925 67.6719 95.5863 68.375 96.7738 68.375C99.3988 68.375 104.211 63.4219 111.211 53.5156C111.368 53.2031 111.555 53.0469 111.774 53.0469C111.899 53.0781 111.961 53.1719 111.961 53.3281C111.961 53.5156 111.805 53.7656 111.493 54.0781L109.477 56.8438C103.571 65 99.2113 69.0781 96.3988 69.0781C95.055 69.0781 93.9456 68.5781 93.0706 67.5781C92.2269 66.5469 91.805 65.25 91.805 63.6875C91.805 61.9688 92.1956 60.3125 92.9769 58.7188C93.7894 57.0938 96.5081 52.4375 101.133 44.75C106.789 35.3438 111.555 27.1875 115.43 20.2812C116.368 20.5312 117.196 20.6562 117.914 20.6562C119.102 20.6562 120.196 20.4688 121.196 20.0938ZM151.423 19.7188C151.423 22.5 149.454 26 145.516 30.2188C141.579 34.4062 136.423 38.5156 130.048 42.5469H138.11L137.688 43.25H129.532L125.688 50.7031C120.969 59.9219 116.938 66.8594 113.594 71.5156C110.251 76.2031 106.391 80.375 102.016 84.0312C95.985 89.0312 90.3756 91.5312 85.1881 91.5312C82.8756 91.5312 81.7194 91.2031 81.7194 90.5469C81.7194 90.2344 81.8913 90.0781 82.235 90.0781C82.485 90.0781 82.6725 90.1094 82.7975 90.1719C83.9225 90.4844 84.985 90.6406 85.985 90.6406C90.2038 90.6406 94.4538 88.75 98.735 84.9688C101.36 82.6562 103.657 79.9375 105.626 76.8125C107.251 74.3125 111.094 67.5 117.157 56.375L124.376 43.25H119.36L119.735 42.5469H124.844C128.844 35.7656 133.266 29.9062 138.11 24.9688C142.954 20 146.688 17.5156 149.313 17.5156C150.719 17.5156 151.423 18.25 151.423 19.7188ZM150.86 19.625C150.86 18.5938 150.344 18.0781 149.313 18.0781C146.938 18.0781 143.704 20.7969 139.61 26.2344C137.579 28.9844 134.516 34.1094 130.423 41.6094C135.548 38.0469 140.235 33.9844 144.485 29.4219C148.735 24.8594 150.86 21.5938 150.86 19.625ZM166.79 53.3281C166.79 53.5781 165.852 54.7188 163.977 56.75C161.602 59.375 159.368 60.6875 157.274 60.6875C154.899 60.6875 153.712 59.3125 153.712 56.5625C153.712 55.6875 153.899 54.5781 154.274 53.2344C152.306 54.9531 150.696 56.6562 149.446 58.3438C148.227 60.0312 146.102 63.4688 143.071 68.6562C141.415 68.5312 140.446 68.4688 140.165 68.4688C140.04 68.4688 139.087 68.5312 137.306 68.6562L144.993 56.1875C148.837 49.9375 150.759 46.0625 150.759 44.5625C150.759 43.6875 150.399 43.25 149.681 43.25C147.931 43.25 144.759 46.6094 140.165 53.3281C139.884 53.7656 139.634 53.9844 139.415 53.9844C139.29 53.9531 139.227 53.8594 139.227 53.7031C139.259 53.5469 139.321 53.4219 139.415 53.3281L140.259 52.1562C145.071 45.75 148.337 42.5469 150.056 42.5469C152.556 42.5469 153.806 44.1562 153.806 47.375C153.806 49.7812 152.524 52.9688 149.962 56.9375C151.587 55.0625 153.134 53.5312 154.602 52.3438C155.79 49.5625 157.259 47.2344 159.009 45.3594C160.79 43.4844 162.384 42.5469 163.79 42.5469C164.759 42.5469 165.243 42.9688 165.243 43.8125C165.243 45.3125 163.071 47.4531 158.727 50.2344C158.04 50.6719 157.009 51.3125 155.634 52.1562L155.071 52.625C154.634 54.0625 154.415 55.25 154.415 56.1875C154.415 58.8125 155.399 60.125 157.368 60.125C159.806 60.125 162.462 58.1094 165.337 54.0781C165.962 53.3906 166.352 53.0469 166.509 53.0469C166.696 53.0469 166.79 53.1406 166.79 53.3281ZM198.095 53.3281C198.095 53.4219 197.814 53.8281 197.251 54.5469L195.236 57.0781C188.767 65.0781 183.22 69.0781 178.595 69.0781C176.408 69.0781 174.564 68.2969 173.064 66.7344C171.595 65.1406 170.861 63.1562 170.861 60.7812C170.861 55.1562 174.783 50.2031 182.626 45.9219C186.751 43.6719 190.111 42.5469 192.704 42.5469C193.829 42.5469 194.783 42.8906 195.564 43.5781C196.376 44.2344 196.783 45.0469 196.783 46.0156C196.783 48.2656 195.314 50.1875 192.376 51.7812C189.439 53.3438 184.533 54.8125 177.658 56.1875C175.533 59.4062 174.47 62.0938 174.47 64.25C174.47 66.9375 175.923 68.2812 178.829 68.2812C183.767 68.2812 189.814 63.4531 196.97 53.7969C197.345 53.2969 197.658 53.0469 197.908 53.0469C198.033 53.0781 198.095 53.1719 198.095 53.3281ZM194.158 44.6562C194.158 43.6562 193.611 43.1562 192.517 43.1562C190.861 43.1562 188.673 44.3125 185.954 46.625C183.267 48.9062 180.626 51.875 178.033 55.5312C182.533 54.375 186.345 52.75 189.47 50.6562C192.595 48.5312 194.158 46.5312 194.158 44.6562ZM248.337 20.5625C236.619 39.1875 229.228 51.0938 226.166 56.2812C223.072 61.5625 221.525 64.8906 221.525 66.2656C221.525 67.6719 222.166 68.375 223.447 68.375C226.291 68.375 231.119 63.4219 237.931 53.5156C238.119 53.2031 238.291 53.0469 238.447 53.0469C238.634 53.0469 238.728 53.1406 238.728 53.3281C238.697 53.4219 238.541 53.6719 238.259 54.0781L236.244 56.8438C230.337 65 225.978 69.0781 223.166 69.0781C221.728 69.0781 220.556 68.5469 219.65 67.4844C218.744 66.3906 218.291 65 218.291 63.3125C218.291 61.625 218.853 59.6719 219.978 57.4531C214.509 65.2031 210.447 69.0781 207.791 69.0781C206.134 69.0781 204.744 68.375 203.619 66.9688C202.494 65.5312 201.931 63.7344 201.931 61.5781C201.931 56.4219 205.134 51.75 211.541 47.5625C216.634 44.2188 220.634 42.5469 223.541 42.5469C225.478 42.5469 226.447 43.4844 226.447 45.3594C226.447 46.2344 226.181 47.2188 225.65 48.3125L242.384 20.2812C243.416 20.5938 244.431 20.75 245.431 20.75C245.681 20.75 246.65 20.6875 248.337 20.5625ZM225.744 45.7344C225.744 44.0781 224.978 43.25 223.447 43.25C220.634 43.25 216.916 46.0625 212.291 51.6875C207.697 57.2812 205.4 61.7969 205.4 65.2344C205.4 67.3281 206.259 68.375 207.978 68.375C210.478 68.375 214.775 64.0312 220.869 55.3438C224.119 50.6562 225.744 47.4531 225.744 45.7344ZM407.651 21.8281C407.651 24.4531 407.354 25.7656 406.76 25.7656C406.51 25.7656 406.385 25.6719 406.385 25.4844C406.385 25.1406 406.448 24.5938 406.573 23.8438C406.698 23.0938 406.76 22.5156 406.76 22.1094C406.76 17.7969 405.229 14.2656 402.166 11.5156C399.104 8.73438 395.198 7.34375 390.448 7.34375C381.041 7.34375 371.573 13.4531 362.041 25.6719C359.041 29.4844 353.213 38.6719 344.557 53.2344C342.057 57.4531 339.479 61.2188 336.823 64.5312C334.198 67.8125 332.463 69.4531 331.619 69.4531C331.151 69.4531 330.916 69.2188 330.916 68.75C330.916 68.1562 331.619 67.5156 333.026 66.8281C335.776 65.5469 337.151 62.3594 337.151 57.2656C337.151 56.2969 337.088 54.6875 336.963 52.4375C336.651 46.875 336.494 42.0781 336.494 38.0469C336.494 31.3281 337.135 25.8125 338.416 21.5C339.729 17.1562 341.901 13.3281 344.932 10.0156C344.994 9.92188 345.057 9.79688 345.119 9.64062C344.151 9.51562 342.01 11.5 338.698 15.5938C336.948 17.75 335.369 19.9844 333.963 22.2969C332.588 24.6094 328.979 31.0469 323.135 41.6094C318.135 50.6406 312.307 57.625 305.651 62.5625C298.994 67.4688 292.057 69.9219 284.838 69.9219C280.776 69.9219 277.416 69.0156 274.76 67.2031C272.135 65.3906 270.823 63.0625 270.823 60.2188C270.823 58.5938 271.291 57.2344 272.229 56.1406C273.166 55.0156 274.338 54.4531 275.744 54.4531C277.776 54.4531 278.791 55.4531 278.791 57.4531C278.791 58.4844 278.463 59.375 277.807 60.125C277.151 60.8438 276.354 61.2031 275.416 61.2031C273.885 61.2031 273.119 60.3594 273.119 58.6719C273.119 58.0469 272.994 57.7344 272.744 57.7344C272.244 57.7344 271.994 58.5938 271.994 60.3125C271.994 62.875 273.213 64.9844 275.651 66.6406C278.119 68.2656 281.244 69.0781 285.026 69.0781C292.276 69.0781 298.994 66.3438 305.182 60.875C311.401 55.4062 318.51 45.9375 326.51 32.4688C333.041 21.5 338.26 14.2969 342.166 10.8594C344.854 8.51562 346.573 7.34375 347.323 7.34375C347.448 7.375 347.526 7.4375 347.557 7.53125C347.557 7.59375 347.354 7.875 346.948 8.375C344.979 11.0312 343.729 13.8594 343.198 16.8594C342.698 19.8281 342.354 26.1875 342.166 35.9375C341.916 47.8438 340.448 56.3594 337.76 61.4844C337.698 61.4844 337.666 61.5469 337.666 61.6719L337.76 61.7656C338.323 61.7656 343.057 53.9219 351.963 38.2344C358.463 26.7656 364.729 18.4844 370.76 13.3906C376.823 8.26562 383.354 5.70312 390.354 5.70312C395.354 5.70312 399.479 7.23438 402.729 10.2969C406.01 13.3281 407.651 17.1719 407.651 21.8281ZM332.557 18.5469C332.557 19.2344 331.666 20.5781 329.885 22.5781C327.198 25.6094 324.604 27.125 322.104 27.125C320.385 27.125 318.932 26.5 317.744 25.25C316.557 23.9688 315.963 22.4062 315.963 20.5625C315.963 18.7812 316.604 16.6406 317.885 14.1406C319.479 11.0156 320.276 8.8125 320.276 7.53125C320.276 5.9375 319.526 4.65625 318.026 3.6875C316.526 2.71875 314.557 2.23438 312.119 2.23438C305.151 2.23438 298.604 5.04688 292.479 10.6719C286.354 16.2969 283.291 22.2812 283.291 28.625C283.291 31.9062 284.291 34.5938 286.291 36.6875C288.323 38.75 290.916 39.7812 294.073 39.7812C296.885 39.7812 299.729 38.9844 302.604 37.3906C305.51 35.7656 307.854 33.6875 309.635 31.1562C309.76 31 309.854 30.9219 309.916 30.9219C310.166 30.9219 310.291 31.0625 310.291 31.3438C310.291 31.9688 309.291 33.1719 307.291 34.9531C303.166 38.6719 298.698 40.5312 293.885 40.5312C290.51 40.5312 287.76 39.4375 285.635 37.25C283.51 35.0625 282.448 32.2188 282.448 28.7188C282.448 21.9375 285.573 15.7031 291.823 10.0156C298.104 4.32812 304.963 1.48438 312.401 1.48438C315.463 1.48438 317.854 2.25 319.573 3.78125C321.323 5.3125 322.198 7.42188 322.198 10.1094C322.198 12.1094 321.198 15.1562 319.198 19.25C318.51 20.6875 318.166 21.8281 318.166 22.6719C318.166 25.0469 319.448 26.2344 322.01 26.2344C323.541 26.2344 325.244 25.5 327.119 24.0312C329.026 22.5625 330.557 20.7656 331.713 18.6406C331.869 18.3281 332.026 18.1719 332.182 18.1719C332.432 18.1719 332.557 18.2969 332.557 18.5469ZM390.253 53.2344C390.253 53.7344 389.331 54.9062 387.487 56.75C384.737 59.5 382.206 60.875 379.893 60.875C378.924 60.875 378.065 60.6875 377.315 60.3125C373.19 66.1562 369.315 69.0781 365.69 69.0781C363.815 69.0781 362.206 68.3125 360.862 66.7812C359.549 65.2188 358.893 63.3594 358.893 61.2031C358.893 56.3906 362.049 51.75 368.362 47.2812C372.799 44.125 376.456 42.5469 379.331 42.5469C382.018 42.5469 383.362 43.9844 383.362 46.8594C383.362 50.4531 381.471 54.7812 377.69 59.8438C378.315 60.2188 379.018 60.4062 379.799 60.4062C381.206 60.4062 382.846 59.75 384.721 58.4375C386.596 57.125 388.128 55.5469 389.315 53.7031C389.659 53.2656 389.909 53.0469 390.065 53.0469C390.19 53.0469 390.253 53.1094 390.253 53.2344ZM382.659 46.9531C382.659 44.4219 381.518 43.1562 379.237 43.1562C376.393 43.1562 372.924 45.875 368.831 51.3125C364.737 56.75 362.69 61.3281 362.69 65.0469C362.69 67.2031 363.721 68.2812 365.784 68.2812C369.159 68.2812 372.846 65.5 376.846 59.9375C375.94 58.9375 375.487 57.9062 375.487 56.8438C375.487 55.3125 376.096 53.7344 377.315 52.1094C378.534 50.4844 379.721 49.6719 380.878 49.6719C381.378 49.6719 381.721 49.9844 381.909 50.6094C382.409 49.5156 382.659 48.2969 382.659 46.9531ZM423.198 20.6562L402.151 53.8906C405.432 49.3906 407.886 46.375 409.511 44.8438C411.136 43.3125 412.682 42.5469 414.151 42.5469C415.901 42.5469 417.323 43.2656 418.417 44.7031C419.542 46.1094 420.104 47.8906 420.104 50.0469C420.104 54.7656 417.104 59.4062 411.104 63.9688C406.636 67.375 402.667 69.0781 399.198 69.0781C397.573 69.0781 396.245 68.4688 395.214 67.25C394.214 66 393.714 64.3906 393.714 62.4219C393.714 60.0781 395.214 56.5 398.214 51.6875L417.62 20.5625C418.464 20.8125 419.37 20.9375 420.339 20.9375C421.089 20.9375 422.042 20.8438 423.198 20.6562ZM416.682 46.3906C416.682 44.2969 415.807 43.25 414.057 43.25C411.776 43.25 407.886 47.0156 402.386 54.5469C398.261 60.1719 396.198 63.9531 396.198 65.8906C396.198 67.5469 397.011 68.375 398.636 68.375C401.448 68.375 405.151 65.5781 409.745 59.9844C414.37 54.3594 416.682 49.8281 416.682 46.3906ZM454.644 53.3281C454.644 53.4219 454.362 53.8281 453.8 54.5469L451.784 57.0781C445.316 65.0781 439.769 69.0781 435.144 69.0781C432.956 69.0781 431.112 68.2969 429.612 66.7344C428.144 65.1406 427.409 63.1562 427.409 60.7812C427.409 55.1562 431.331 50.2031 439.175 45.9219C443.3 43.6719 446.659 42.5469 449.253 42.5469C450.378 42.5469 451.331 42.8906 452.112 43.5781C452.925 44.2344 453.331 45.0469 453.331 46.0156C453.331 48.2656 451.862 50.1875 448.925 51.7812C445.987 53.3438 441.081 54.8125 434.206 56.1875C432.081 59.4062 431.019 62.0938 431.019 64.25C431.019 66.9375 432.472 68.2812 435.378 68.2812C440.316 68.2812 446.362 63.4531 453.519 53.7969C453.894 53.2969 454.206 53.0469 454.456 53.0469C454.581 53.0781 454.644 53.1719 454.644 53.3281ZM450.706 44.6562C450.706 43.6562 450.159 43.1562 449.066 43.1562C447.409 43.1562 445.222 44.3125 442.503 46.625C439.816 48.9062 437.175 51.875 434.581 55.5312C439.081 54.375 442.894 52.75 446.019 50.6562C449.144 48.5312 450.706 46.5312 450.706 44.6562ZM486.933 20.0938C473.808 41.9375 466.152 54.7812 463.964 58.625C461.808 62.4688 460.73 65.0156 460.73 66.2656C460.73 67.6719 461.324 68.375 462.511 68.375C465.136 68.375 469.949 63.4219 476.949 53.5156C477.105 53.2031 477.293 53.0469 477.511 53.0469C477.636 53.0781 477.699 53.1719 477.699 53.3281C477.699 53.5156 477.543 53.7656 477.23 54.0781L475.214 56.8438C469.308 65 464.949 69.0781 462.136 69.0781C460.793 69.0781 459.683 68.5781 458.808 67.5781C457.964 66.5469 457.543 65.25 457.543 63.6875C457.543 61.9688 457.933 60.3125 458.714 58.7188C459.527 57.0938 462.246 52.4375 466.871 44.75C472.527 35.3438 477.293 27.1875 481.168 20.2812C482.105 20.5312 482.933 20.6562 483.652 20.6562C484.839 20.6562 485.933 20.4688 486.933 20.0938Z" stroke="black" stroke-width="2" mask="url(#path-1-outside-1_221_5)"/>
</svg>
